<?xml version="1.0" encoding="UTF-8" standalone="no"?>
<!DOCTYPE svg PUBLIC "-//W3C//DTD SVG 1.1//EN"
 "http://www.w3.org/Graphics/SVG/1.1/DTD/svg11.dtd">
<!-- Generated by graphviz version 2.43.0 (0)
 -->
<!-- Title: G Pages: 1 -->
<svg width="271pt" height="116pt"
 viewBox="0.00 0.00 271.00 116.00" xmlns="http://www.w3.org/2000/svg" xmlns:xlink="http://www.w3.org/1999/xlink">
<g id="graph0" class="graph" transform="scale(1 1) rotate(0) translate(4 112)">
<title>G</title>
<polygon fill="white" stroke="transparent" points="-4,4 -4,-112 267,-112 267,4 -4,4"/>
<!-- Postgres -->
<g id="node1" class="node">
<title>Postgres</title>
<polygon fill="lightgrey" stroke="black" points="70,-108 0,-108 0,-72 70,-72 70,-108"/>
<text text-anchor="middle" x="35" y="-86.3" font-family="Arial" font-size="14.00">Postgres</text>
</g>
<!-- Celery -->
<g id="node2" class="node">
<title>Celery</title>
<polygon fill="lightblue" stroke="black" points="263,-108 207,-108 207,-72 263,-72 263,-108"/>
<text text-anchor="middle" x="235" y="-86.3" font-family="Arial" font-size="14.00">Celery</text>
</g>
<!-- Postgres&#45;&gt;Celery -->
<g id="edge1" class="edge">
<title>Postgres&#45;&gt;Celery</title>
<path fill="none" stroke="black" d="M70.04,-90C105.26,-90 160.12,-90 196.55,-90"/>
<polygon fill="black" stroke="black" points="196.77,-93.5 206.77,-90 196.77,-86.5 196.77,-93.5"/>
</g>
<!-- FastAPI -->
<g id="node3" class="node">
<title>FastAPI</title>
<polygon fill="lightblue" stroke="black" points="171,-36 106,-36 106,0 171,0 171,-36"/>
<text text-anchor="middle" x="138.5" y="-14.3" font-family="Arial" font-size="14.00">FastAPI</text>
</g>
<!-- Postgres&#45;&gt;FastAPI -->
<g id="edge2" class="edge">
<title>Postgres&#45;&gt;FastAPI</title>
<path fill="none" stroke="black" d="M61.61,-71.83C74.35,-62.79 89.93,-51.75 103.64,-42.02"/>
<polygon fill="black" stroke="black" points="105.76,-44.8 111.9,-36.16 101.71,-39.09 105.76,-44.8"/>
</g>
<!-- FastAPI&#45;&gt;Celery -->
<g id="edge4" class="edge">
<title>FastAPI&#45;&gt;Celery</title>
<path fill="none" stroke="black" d="M163.35,-36.17C175.1,-45.12 189.43,-56.04 202.11,-65.7"/>
<polygon fill="black" stroke="black" points="200.09,-68.56 210.16,-71.84 204.33,-62.99 200.09,-68.56"/>
</g>
<!-- React -->
<g id="node5" class="node">
<title>React</title>
<polygon fill="lightgreen" stroke="black" points="262,-36 208,-36 208,0 262,0 262,-36"/>
<text text-anchor="middle" x="235" y="-14.3" font-family="Arial" font-size="14.00">React</text>
</g>
<!-- FastAPI&#45;&gt;React -->
<g id="edge5" class="edge">
<title>FastAPI&#45;&gt;React</title>
<path fill="none" stroke="black" d="M171.23,-18C179.69,-18 188.9,-18 197.59,-18"/>
<polygon fill="black" stroke="black" points="197.86,-21.5 207.86,-18 197.86,-14.5 197.86,-21.5"/>
</g>
<!-- Redis -->
<g id="node4" class="node">
<title>Redis</title>
<polygon fill="lightgrey" stroke="black" points="62,-36 8,-36 8,0 62,0 62,-36"/>
<text text-anchor="middle" x="35" y="-14.3" font-family="Arial" font-size="14.00">Redis</text>
</g>
<!-- Redis&#45;&gt;FastAPI -->
<g id="edge3" class="edge">
<title>Redis&#45;&gt;FastAPI</title>
<path fill="none" stroke="black" d="M62.14,-18C72.3,-18 84.2,-18 95.51,-18"/>
<polygon fill="black" stroke="black" points="95.65,-21.5 105.65,-18 95.65,-14.5 95.65,-21.5"/>
</g>
</g>
</svg>
